# xmcd CD Database Entry
#
# Track frame offsets:
# 150
# 18680
# 26844
# 43550
# 60567
# 72865
# 88667
# 103825
# 120900
# 135450
#
# Disc length: 2010 seconds
#
# Revision: 1
# Processed by: cddbd v1.4PL0 Copyright (c) Steve Scherf et al.
# Submitted via: tcd 2.0b
#
DISCID=8207d80a
DTITLE=Martina McBride - White Christmas
DYEAR=1900
DGENRE=
TTITLE0=Have Yourself a Merry Little Christmas
TTITLE1=Let It Snow, Let It Snow, Let It Snow
TTITLE2=The Christmas Song (Chestnuts Roasting on an Open Fire)
TTITLE3=O Holy Night
TTITLE4=Silver Bells
TTITLE5=Away in a Manger
TTITLE6=White Christmas
TTITLE7=What Child Is This
TTITLE8=I'll Be Home for Christmas
TTITLE9=Silent Night
EXTD=
EXTT0=
EXTT1=
EXTT2=
EXTT3=
EXTT4=
EXTT5=
EXTT6=
EXTT7=
EXTT8=
EXTT9=
PLAYORDER=
